<?xml version="1.0" encoding="utf-8"?>
<!-- Generator: Adobe Illustrator 24.0.1, SVG Export Plug-In . SVG Version: 6.00 Build 0)  -->
<svg version="1.1" id="图层_1" xmlns="http://www.w3.org/2000/svg" xmlns:xlink="http://www.w3.org/1999/xlink" x="0px" y="0px"
	 viewBox="0 0 200 200" style="enable-background:new 0 0 200 200;" xml:space="preserve">
<path d="M50,154.1c-1.3,0-2.6-0.5-3.5-1.6l-40-43.6c-2-2.1-2-5.6,0-7.7l40-43.6c2-2.1,5.1-2.1,7.1,0s2,5.6,0,7.7L17.1,105l36.5,39.8
	c2,2.1,2,5.6,0,7.7C52.5,153.6,51.3,154.1,50,154.1L50,154.1z"/>
<path d="M150,154.1c-1.3,0-2.6-0.5-3.5-1.6c-1.9-2.1-1.9-5.6,0-7.7l36.5-39.8l-36.5-39.8c-1.9-2.1-1.9-5.6,0-7.7
	c1.9-2.1,5.1-2.1,7.1,0l40,43.6c1.9,2.1,1.9,5.6,0,7.7l-40,43.6C152.6,153.6,151.3,154.1,150,154.1L150,154.1z"/>
<path d="M75,154.1c-0.9,0-1.8-0.3-2.7-0.8c-2.3-1.6-3-5-1.6-7.5l50-87.3c1.5-2.6,4.6-3.3,6.9-1.7c2.3,1.6,3,5,1.6,7.5l-50,87.3
	C78.3,153.2,76.7,154.1,75,154.1z"/>
</svg>
